<svg width="27" height="30" viewBox="0 0 27 30" fill="none" xmlns="http://www.w3.org/2000/svg">
<path d="M24.7154 24.5337C25.0408 24.2083 25.0408 23.6691 24.7154 23.3437L5.09524 3.72353C4.76986 3.39815 4.23066 3.39815 3.90527 3.72353L2.71531 4.9135C2.38993 5.23888 2.38993 5.77808 2.71531 6.10346L22.3355 25.7236C22.6609 26.049 23.2001 26.049 23.5255 25.7236L24.7154 24.5337Z" fill="#2A86E5"/>
<path d="M3.90495 25.7239C4.23033 26.0493 4.76954 26.0493 5.09492 25.7239L24.7151 6.1037C25.0405 5.77832 25.0405 5.23911 24.7151 4.91373L23.5251 3.72376C23.1998 3.39838 22.6606 3.39838 22.3352 3.72376L2.71498 23.3439C2.3896 23.6693 2.3896 24.2085 2.71498 24.5339L3.90495 25.7239Z" fill="#2A86E5"/>
</svg>
