<svg aria-hidden="true" style="position: absolute; width: 0; height: 0; overflow: hidden;" version="1.1" xmlns="http://www.w3.org/2000/svg" xmlns:xlink="http://www.w3.org/1999/xlink">
<defs>
<symbol id="android-menu" viewBox="0 0 32 32">
<path fill="#707070" style="fill:var(--color1, #707070)" d="M11.442 6.827c-0.404 0-0.731-0.346-0.731-0.75s0.327-0.75 0.731-0.75c0.423 0 0.75 0.346 0.75 0.75s-0.327 0.75-0.75 0.75zM19.558 6.827c-0.423 0-0.75-0.346-0.75-0.75s0.327-0.75 0.75-0.75c0.404 0 0.731 0.346 0.731 0.75s-0.327 0.75-0.731 0.75zM3.942 10.365c-1.096 0-1.981 0.885-1.981 1.962v8.269c0 1.096 0.885 1.981 1.981 1.981s1.962-0.885 1.962-1.981v-8.269c0-1.077-0.885-1.962-1.962-1.962zM24.327 10.731h-17.654v12.808c0 1.173 0.942 2.115 2.115 2.115h1.423l0.019 4.365c0 1.096 0.885 1.981 1.962 1.981 1.096 0 1.981-0.885 1.981-1.981v-4.365h2.654v4.365c0 1.096 0.885 1.981 1.981 1.981s1.981-0.885 1.981-1.981v-4.365h1.442c1.154 0 2.096-0.942 2.096-2.115v-12.808zM19.865 2.942l1.365-2.519c0.077-0.135 0.038-0.308-0.096-0.385-0.135-0.058-0.308-0.019-0.385 0.115l-1.385 2.538c-1.173-0.519-2.481-0.808-3.865-0.808s-2.692 0.288-3.865 0.808l-1.385-2.538c-0.077-0.135-0.25-0.173-0.385-0.115-0.135 0.077-0.173 0.25-0.096 0.385l1.365 2.519c-2.712 1.385-4.538 4.038-4.538 7.096h17.788c0-3.058-1.827-5.712-4.519-7.096zM29.039 12.327c0-1.096-0.885-1.962-1.981-1.962-1.077 0-1.962 0.865-1.962 1.962v8.269c0 1.096 0.885 1.981 1.962 1.981 1.096 0 1.981-0.885 1.981-1.981v-8.269z"></path>
</symbol>
<symbol id="android" viewBox="0 0 32 32">
<path fill="#FFFFFF" style="fill:var(--color1, #FFFFFF)" d="M11.442 6.827c-0.404 0-0.731-0.346-0.731-0.75s0.327-0.75 0.731-0.75c0.423 0 0.75 0.346 0.75 0.75s-0.327 0.75-0.75 0.75zM19.558 6.827c-0.423 0-0.75-0.346-0.75-0.75s0.327-0.75 0.75-0.75c0.404 0 0.731 0.346 0.731 0.75s-0.327 0.75-0.731 0.75zM3.942 10.365c-1.096 0-1.981 0.885-1.981 1.962v8.269c0 1.096 0.885 1.981 1.981 1.981s1.962-0.885 1.962-1.981v-8.269c0-1.077-0.885-1.962-1.962-1.962zM24.327 10.731h-17.654v12.808c0 1.173 0.942 2.115 2.115 2.115h1.423l0.019 4.365c0 1.096 0.885 1.981 1.962 1.981 1.096 0 1.981-0.885 1.981-1.981v-4.365h2.654v4.365c0 1.096 0.885 1.981 1.981 1.981s1.981-0.885 1.981-1.981v-4.365h1.442c1.154 0 2.096-0.942 2.096-2.115v-12.808zM19.865 2.942l1.365-2.519c0.077-0.135 0.038-0.308-0.096-0.385-0.135-0.058-0.308-0.019-0.385 0.115l-1.385 2.538c-1.173-0.519-2.481-0.808-3.865-0.808s-2.692 0.288-3.865 0.808l-1.385-2.538c-0.077-0.135-0.25-0.173-0.385-0.115-0.135 0.077-0.173 0.25-0.096 0.385l1.365 2.519c-2.712 1.385-4.538 4.038-4.538 7.096h17.788c0-3.058-1.827-5.712-4.519-7.096zM29.039 12.327c0-1.096-0.885-1.962-1.981-1.962-1.077 0-1.962 0.865-1.962 1.962v8.269c0 1.096 0.885 1.981 1.962 1.981 1.096 0 1.981-0.885 1.981-1.981v-8.269z"></path>
</symbol>
<symbol id="apple-menu" viewBox="0 0 32 32">
<path fill="#707070" style="fill: var(--color1, #707070)" d="M28.788 23.365c-1.135-0.346-2.154-1.154-3.038-2.423s-1.327-2.712-1.327-4.288c0-1.462 0.423-2.788 1.25-3.981 0.462-0.673 1.192-1.423 2.192-2.269-0.654-0.808-1.327-1.462-2-1.923-1.192-0.827-2.558-1.25-4.096-1.25-0.942 0-2.058 0.231-3.327 0.654-1.269 0.442-2.192 0.654-2.75 0.654-0.442 0-1.327-0.192-2.654-0.577-1.346-0.385-2.462-0.577-3.404-0.577-2.212 0-4.019 0.923-5.462 2.769-1.442 1.865-2.173 4.25-2.173 7.192 0 3.154 0.962 6.365 2.827 9.673 1.904 3.308 3.808 4.981 5.788 4.981 0.635 0 1.481-0.211 2.538-0.654 1.038-0.423 1.962-0.635 2.731-0.635 0.788 0 1.769 0.192 2.904 0.615 1.154 0.404 2.038 0.615 2.692 0.615 1.635 0 3.288-1.25 4.942-3.769 1.115-1.673 1.885-3.288 2.365-4.808zM21.558 0.808c0-0.135-0.019-0.25-0.019-0.385-0.019-0.115-0.058-0.25-0.096-0.423-2.231 0.519-3.846 1.462-4.808 2.846s-1.462 3.038-1.5 4.942c0.904-0.077 1.558-0.192 2-0.327 0.692-0.231 1.385-0.692 2.077-1.385 0.808-0.808 1.404-1.692 1.788-2.654 0.365-0.942 0.558-1.827 0.558-2.615z"></path>
</symbol>
<symbol id="apple" viewBox="0 0 32 32">
<path fill="#FFFFFF" style="fill: var(--color1, #FFFFFF)" d="M28.788 23.365c-1.135-0.346-2.154-1.154-3.038-2.423s-1.327-2.712-1.327-4.288c0-1.462 0.423-2.788 1.25-3.981 0.462-0.673 1.192-1.423 2.192-2.269-0.654-0.808-1.327-1.462-2-1.923-1.192-0.827-2.558-1.25-4.096-1.25-0.942 0-2.058 0.231-3.327 0.654-1.269 0.442-2.192 0.654-2.75 0.654-0.442 0-1.327-0.192-2.654-0.577-1.346-0.385-2.462-0.577-3.404-0.577-2.212 0-4.019 0.923-5.462 2.769-1.442 1.865-2.173 4.25-2.173 7.192 0 3.154 0.962 6.365 2.827 9.673 1.904 3.308 3.808 4.981 5.788 4.981 0.635 0 1.481-0.211 2.538-0.654 1.038-0.423 1.962-0.635 2.731-0.635 0.788 0 1.769 0.192 2.904 0.615 1.154 0.404 2.038 0.615 2.692 0.615 1.635 0 3.288-1.25 4.942-3.769 1.115-1.673 1.885-3.288 2.365-4.808zM21.558 0.808c0-0.135-0.019-0.25-0.019-0.385-0.019-0.115-0.058-0.25-0.096-0.423-2.231 0.519-3.846 1.462-4.808 2.846s-1.462 3.038-1.5 4.942c0.904-0.077 1.558-0.192 2-0.327 0.692-0.231 1.385-0.692 2.077-1.385 0.808-0.808 1.404-1.692 1.788-2.654 0.365-0.942 0.558-1.827 0.558-2.615z"></path>
</symbol>
<symbol id="burger-menu" viewBox="0 0 32 32">
<path fill="#2a86e5" style="fill: var(--color2, #2a86e5)" d="M28.725 24.45c0-0.491-0.407-0.898-0.898-0.898h-25.33c-0.491 0-0.898 0.407-0.898 0.898v1.795c0 0.491 0.407 0.898 0.898 0.898h25.33c0.491 0 0.898-0.407 0.898-0.898v-1.795zM28.725 14.807c0-0.491-0.407-0.898-0.898-0.898h-25.33c-0.491 0-0.898 0.407-0.898 0.898v1.795c0 0.491 0.407 0.898 0.898 0.898h25.33c0.491 0 0.898-0.407 0.898-0.898v-1.795zM28.725 5.164c0-0.491-0.407-0.898-0.898-0.898h-25.33c-0.491 0-0.898 0.407-0.898 0.898v1.795c0 0.491 0.407 0.898 0.898 0.898h25.33c0.491 0 0.898-0.407 0.898-0.898v-1.795z"></path>
</symbol>
<symbol id="burger-more" viewBox="0 0 32 32">
<path fill="#707070" style="fill: var(--color3, #707070)" d="M32 25.059c0-0.579-0.48-1.059-1.059-1.059h-29.882c-0.579 0-1.059 0.48-1.059 1.059v2.118c0 0.579 0.48 1.059 1.059 1.059h29.882c0.579 0 1.059-0.48 1.059-1.059v-2.118zM32 14.941c0-0.579-0.48-1.059-1.059-1.059h-29.882c-0.579 0-1.059 0.48-1.059 1.059v2.118c0 0.579 0.48 1.059 1.059 1.059h29.882c0.579 0 1.059-0.48 1.059-1.059v-2.118zM32 4.824c0-0.579-0.48-1.059-1.059-1.059h-29.882c-0.579 0-1.059 0.48-1.059 1.059v2.118c0 0.579 0.48 1.059 1.059 1.059h29.882c0.579 0 1.059-0.48 1.059-1.059v-2.118z"></path>
</symbol>
<symbol id="clock" viewBox="0 0 32 32">
<path fill="#b3b3b1" style="fill: var(--color4, #b3b3b1)" d="M18.462 9.231c0-0.346-0.269-0.615-0.615-0.615h-1.231c-0.346 0-0.615 0.269-0.615 0.615v6.769h-4.308c-0.346 0-0.615 0.269-0.615 0.615v1.231c0 0.346 0.269 0.615 0.615 0.615h6.154c0.346 0 0.615-0.269 0.615-0.615v-8.615zM26.462 16c0 5.769-4.692 10.462-10.462 10.462s-10.462-4.692-10.462-10.462c0-5.769 4.692-10.462 10.462-10.462s10.462 4.692 10.462 10.462zM30.769 16c0-8.154-6.615-14.769-14.769-14.769s-14.769 6.615-14.769 14.769c0 8.154 6.615 14.769 14.769 14.769s14.769-6.615 14.769-14.769z"></path>
</symbol>
<symbol id="download" viewBox="0 0 32 32">
<path fill="#fff" style="fill: var(--color1, #fff)" d="M30.258 20.923c-0.337-0.338-0.748-0.507-1.23-0.507h-8.398l-2.462 2.461c-0.7 0.676-1.52 1.014-2.462 1.014s-1.762-0.337-2.462-1.014l-2.443-2.461h-8.416c-0.483 0-0.893 0.169-1.231 0.507s-0.507 0.748-0.507 1.231v5.792c0 0.483 0.169 0.893 0.507 1.231s0.748 0.507 1.231 0.507h26.643c0.482 0 0.893-0.169 1.23-0.507s0.507-0.748 0.507-1.231v-5.792c0-0.483-0.169-0.893-0.507-1.231zM23.471 27.023c-0.229 0.229-0.501 0.344-0.815 0.344s-0.585-0.115-0.814-0.344c-0.229-0.229-0.344-0.501-0.344-0.814s0.114-0.585 0.344-0.814c0.23-0.229 0.501-0.344 0.814-0.344s0.585 0.115 0.815 0.344c0.229 0.229 0.344 0.501 0.344 0.814s-0.115 0.585-0.344 0.814zM28.104 27.023c-0.229 0.229-0.501 0.344-0.814 0.344s-0.585-0.115-0.814-0.344c-0.229-0.229-0.344-0.501-0.344-0.814s0.114-0.585 0.344-0.814c0.229-0.229 0.501-0.344 0.814-0.344s0.585 0.115 0.814 0.344c0.229 0.229 0.344 0.501 0.344 0.814s-0.115 0.585-0.344 0.814z"></path>
<path fill="#fff" style="fill: var(--color1, #fff)" d="M14.891 21.231c0.217 0.229 0.489 0.344 0.814 0.344s0.597-0.115 0.814-0.344l8.109-8.109c0.374-0.35 0.459-0.772 0.253-1.267-0.205-0.47-0.561-0.706-1.068-0.706h-4.634v-8.109c0-0.314-0.115-0.585-0.344-0.814s-0.501-0.344-0.814-0.344h-4.634c-0.314 0-0.585 0.115-0.814 0.344s-0.344 0.501-0.344 0.814v8.109h-4.633c-0.507 0-0.863 0.236-1.068 0.706-0.205 0.495-0.121 0.917 0.253 1.267l8.109 8.109z"></path>
</symbol>
<symbol id="facebook-side" viewBox="0 0 32 32">
<path fill="#fff" style="fill: var(--color1, #fff)" d="M12.708 31.405v-13.631h-4.565v-5.417h4.565v-4.268c0-4.637 2.833-7.161 6.97-7.161 1.982 0 3.684 0.149 4.178 0.214v4.845h-2.869c-2.25 0-2.684 1.071-2.684 2.637v3.732h5.078l-0.697 5.417h-4.381v13.631z"></path>
</symbol>
<symbol id="facebook" viewBox="0 0 32 32" >
<path fill="#fff" style="fill: var(--color1, #fff)" d="M23.753 1.051c-0.477-0.071-2.119-0.212-4.025-0.212-3.99 0-6.726 2.436-6.726 6.903v3.849h-4.502v5.226h4.502v13.399h5.402v-13.399h4.484l0.689-5.226h-5.173v-3.337c0-1.501 0.406-2.542 2.578-2.542h2.772v-4.661z"></path>
</symbol>
<symbol id="furfur" viewBox="0 0 32 32">
<path fill="#e1541b" style="fill: var(--color5, #e1541b)" d="M22.302 13.714c0 4.643-3.778 8.421-8.421 8.421s-8.421-3.778-8.421-8.421c0-4.643 3.778-8.421 8.421-8.421s8.421 3.778 8.421 8.421zM31.926 29.353c0-0.639-0.263-1.259-0.696-1.692l-6.447-6.447c1.523-2.199 2.331-4.831 2.331-7.5 0-7.312-5.921-13.233-13.233-13.233s-13.233 5.921-13.233 13.233c0 7.312 5.921 13.233 13.233 13.233 2.669 0 5.301-0.808 7.5-2.331l6.447 6.428c0.432 0.451 1.053 0.714 1.692 0.714 1.316 0 2.406-1.090 2.406-2.406z"></path>
</symbol>
<symbol id="googlenews" viewBox="0 0 32 32">
<path fill="#fff" style="fill: #fff" d="M6.542 3.849c0.002-0.213 0.090-0.417 0.243-0.568s0.361-0.234 0.576-0.234h17.277c0.216-0 0.422 0.084 0.575 0.234s0.24 0.354 0.241 0.568v4.408l5.997 1.596c0.402 0.104 0.635 0.546 0.518 0.976l-3.608 13.321-0.001 3.991c0 0.215-0.086 0.421-0.24 0.573s-0.362 0.237-0.579 0.237h-23.088c-0.217 0-0.426-0.085-0.579-0.237s-0.24-0.358-0.24-0.573v-6.966l-3.582-9.736c-0.154-0.419 0.040-0.877 0.43-1.017l6.059-2.182v-4.391zM18.98 6.534l5.355 1.425v-3.806h-16.673v3.684l9.707-3.496c0.391-0.14 0.836 0.087 0.99 0.506l0.62 1.686zM28.125 10.299c-0.154-0.152-0.362-0.237-0.579-0.237h-7.268l-0.831-2.258 11.364 3.024-2.448 9.038 0.002-8.993c0-0.215-0.086-0.421-0.24-0.573zM1.207 11.339l2.428 6.598v-7.065c0-0.165 0.051-0.326 0.145-0.46l-2.572 0.926zM17.409 5.505l1.677 4.557h-14.333l12.656-4.557zM24.094 16.872c-0.044 0.018-0.092 0.027-0.139 0.027h-6.91v-1.799h6.91c0.096 0 0.189 0.038 0.257 0.105s0.107 0.159 0.107 0.254v1.079c0 0.047-0.009 0.094-0.027 0.138s-0.045 0.083-0.079 0.117c-0.034 0.033-0.074 0.060-0.118 0.078zM24.212 23.629c-0.068 0.067-0.161 0.105-0.257 0.105h-6.91v-1.799h6.91c0.096 0 0.189 0.038 0.257 0.105s0.107 0.159 0.107 0.254v1.080c-0 0.095-0.039 0.187-0.107 0.254zM25.303 20.211c-0.068 0.067-0.161 0.105-0.257 0.105h-8v-1.799h8c0.096 0 0.189 0.038 0.257 0.105s0.107 0.159 0.107 0.254v1.079c0 0.095-0.038 0.187-0.107 0.254zM15.041 19.516c-0.001-0.274-0.024-0.547-0.069-0.818h-4.109v1.621h2.353c-0.194 0.988-1.071 1.705-2.353 1.705-1.428 0-2.584-1.195-2.584-2.608s1.158-2.608 2.584-2.608c0.622-0.010 1.223 0.222 1.674 0.647l1.245-1.232c-0.79-0.733-1.837-1.136-2.92-1.122-0.577-0.007-1.151 0.1-1.686 0.314s-1.023 0.531-1.434 0.932c-0.411 0.402-0.737 0.88-0.96 1.407s-0.337 1.093-0.337 1.664c0 0.571 0.115 1.137 0.337 1.664s0.549 1.005 0.96 1.407c0.411 0.402 0.898 0.718 1.434 0.932s1.109 0.32 1.686 0.314c2.521 0 4.178-1.753 4.178-4.219z"></path>
</symbol>
<symbol id="heart-side" viewBox="0 0 32 32">
<path fill="#fff" style="fill: var(--color1, #fff)" d="M26.256 6.064c-1.262-1.346-2.994-2.088-4.877-2.088-1.407 0-2.696 0.438-3.831 1.301-0.573 0.436-1.091 0.969-1.549 1.59-0.457-0.622-0.976-1.155-1.549-1.59-1.135-0.863-2.423-1.301-3.831-1.301-1.883 0-3.615 0.741-4.877 2.088-1.247 1.331-1.934 3.148-1.934 5.119 0 2.028 0.768 3.884 2.418 5.842 1.476 1.751 3.597 3.529 6.053 5.588 0.839 0.703 1.79 1.5 2.777 2.349 0.261 0.225 0.596 0.349 0.943 0.348s0.682-0.124 0.942-0.348c0.987-0.849 1.938-1.646 2.777-2.35 2.456-2.058 4.577-3.836 6.053-5.587 1.65-1.958 2.418-3.814 2.418-5.842 0-1.97-0.687-3.788-1.934-5.118z"></path>
</symbol>
<symbol id="instagram" viewBox="0 0 32 32">
<path fill="#fff" style="fill: var(--color1, #fff)" d="M9.374 0.112c-1.702 0.080-2.865 0.352-3.881 0.751-1.052 0.41-1.943 0.96-2.83 1.85s-1.433 1.782-1.84 2.836c-0.394 1.019-0.661 2.182-0.736 3.885s-0.092 2.251-0.084 6.596c0.008 4.345 0.028 4.89 0.11 6.596 0.081 1.702 0.352 2.864 0.751 3.881 0.411 1.052 0.96 1.943 1.851 2.83s1.782 1.432 2.838 1.84c1.018 0.393 2.181 0.662 3.884 0.736s2.251 0.092 6.595 0.084c4.344-0.008 4.891-0.028 6.597-0.109s2.863-0.354 3.88-0.751c1.052-0.411 1.944-0.96 2.831-1.851s1.432-1.784 1.839-2.838c0.394-1.018 0.662-2.181 0.736-3.883 0.075-1.708 0.092-2.253 0.084-6.597s-0.028-4.889-0.109-6.595-0.352-2.865-0.751-3.882c-0.411-1.052-0.96-1.942-1.85-2.83s-1.784-1.434-2.837-1.839c-1.018-0.394-2.181-0.662-3.884-0.736s-2.251-0.092-6.597-0.084-4.889 0.027-6.596 0.11zM9.56 29.036c-1.56-0.068-2.407-0.327-2.972-0.544-0.748-0.288-1.28-0.636-1.843-1.193s-0.908-1.092-1.2-1.837c-0.219-0.565-0.483-1.41-0.556-2.971-0.079-1.686-0.096-2.192-0.105-6.464s0.007-4.777 0.081-6.464c0.067-1.559 0.327-2.407 0.544-2.971 0.288-0.748 0.635-1.28 1.193-1.842s1.091-0.908 1.838-1.2c0.564-0.22 1.41-0.482 2.969-0.556 1.687-0.080 2.193-0.096 6.464-0.105s4.778 0.007 6.466 0.081c1.559 0.068 2.407 0.326 2.971 0.544 0.748 0.288 1.28 0.634 1.842 1.193s0.909 1.090 1.201 1.838c0.221 0.562 0.482 1.408 0.556 2.968 0.080 1.687 0.099 2.193 0.106 6.464s-0.007 4.778-0.081 6.464c-0.068 1.56-0.327 2.407-0.544 2.973-0.288 0.747-0.635 1.28-1.194 1.842s-1.091 0.908-1.838 1.2c-0.563 0.22-1.41 0.482-2.968 0.557-1.687 0.079-2.193 0.096-6.466 0.105s-4.777-0.008-6.464-0.081zM22.604 7.449c0.001 0.38 0.114 0.751 0.326 1.066s0.512 0.561 0.863 0.706 0.737 0.182 1.11 0.107c0.372-0.075 0.714-0.258 0.982-0.527s0.45-0.612 0.524-0.984 0.035-0.759-0.112-1.109c-0.146-0.351-0.393-0.65-0.709-0.86s-0.688-0.322-1.067-0.322c-0.509 0.001-0.997 0.204-1.356 0.565s-0.561 0.849-0.56 1.358zM7.785 16.016c0.009 4.538 3.694 8.208 8.231 8.199s8.209-3.694 8.201-8.231c-0.009-4.538-3.695-8.209-8.232-8.2s-8.208 3.695-8.199 8.232zM10.667 16.010c-0.002-1.055 0.309-2.087 0.893-2.965s1.416-1.563 2.39-1.969c0.974-0.406 2.046-0.513 3.081-0.31s1.986 0.71 2.734 1.454c0.747 0.744 1.257 1.694 1.465 2.728s0.104 2.107-0.297 3.082c-0.402 0.975-1.084 1.81-1.96 2.397s-1.907 0.903-2.961 0.905c-0.7 0.001-1.394-0.135-2.042-0.402s-1.236-0.658-1.733-1.153c-0.496-0.494-0.89-1.081-1.16-1.728s-0.409-1.34-0.41-2.040z"></path>
</symbol>
<symbol id="lenta" viewBox="0 0 32 32">
<path fill="#fff" style="fill: var(--color1, #fff)" d="M0 0v5.818c14.444 0 26.182 11.738 26.182 26.182h5.818c0-17.673-14.327-32-32-32zM0 10.182v5.818c8.829 0 16 7.171 16 16h5.818c0-12.044-9.775-21.818-21.818-21.818zM4.364 23.273c-1.157 0-2.267 0.46-3.086 1.278s-1.278 1.928-1.278 3.085c0 1.157 0.46 2.267 1.278 3.085s1.928 1.278 3.086 1.278 2.267-0.46 3.086-1.278c0.818-0.818 1.278-1.928 1.278-3.085s-0.46-2.267-1.278-3.085c-0.818-0.818-1.928-1.278-3.086-1.278z"></path>
</symbol>
<symbol id="moon" viewBox="0 0 32 32">
<path fill="#fff" style="fill: var(--color1, #fff)" d="M16 0c8.837 0 16 7.163 16 16s-7.163 16-16 16c-8.837 0-16-7.163-16-16s7.163-16 16-16z"></path>
<path fill="#183a5d" style="fill: var(--color6, #183a5d)" d="M25.998 16.5c-0.183 1.979-0.926 3.864-2.141 5.436s-2.853 2.765-4.722 3.44c-1.869 0.675-3.891 0.804-5.831 0.371s-3.715-1.408-5.12-2.813c-1.405-1.405-2.381-3.181-2.813-5.12s-0.304-3.962 0.371-5.831c0.675-1.869 1.868-3.507 3.44-4.722s3.457-1.958 5.436-2.141c-1.159 1.567-1.717 3.498-1.572 5.442s0.983 3.771 2.361 5.149c1.378 1.378 3.206 2.216 5.149 2.361s3.875-0.413 5.442-1.572z"></path>
</symbol>
<symbol id="other-menu" viewBox="0 0 32 32">
<path fill="#707070" style="fill: var(--color1, #707070)" d="M30.854 2.146c-0.208-0.479-0.687-0.813-1.229-0.813h-26.667c-0.542 0-1.021 0.333-1.229 0.813-0.208 0.5-0.104 1.083 0.292 1.458l10.271 10.271v10.125c0 0.354 0.146 0.688 0.396 0.938l5.333 5.333c0.25 0.271 0.583 0.396 0.938 0.396 0.167 0 0.354-0.042 0.521-0.104 0.479-0.208 0.813-0.687 0.813-1.229v-15.458l10.271-10.271c0.396-0.375 0.5-0.958 0.292-1.458z"></path>
</symbol>
<symbol id="other" viewBox="0 0 32 32">
<path fill="#FFFFFF" style="fill: var(--color1, #FFFFFF)" d="M30.854 2.146c-0.208-0.479-0.687-0.813-1.229-0.813h-26.667c-0.542 0-1.021 0.333-1.229 0.813-0.208 0.5-0.104 1.083 0.292 1.458l10.271 10.271v10.125c0 0.354 0.146 0.688 0.396 0.938l5.333 5.333c0.25 0.271 0.583 0.396 0.938 0.396 0.167 0 0.354-0.042 0.521-0.104 0.479-0.208 0.813-0.687 0.813-1.229v-15.458l10.271-10.271c0.396-0.375 0.5-0.958 0.292-1.458z"></path>
</symbol>
<symbol id="palm" viewBox="0 0 32 32">
<path fill="#FFFFFF" style="fill: var(--color1, #FFFFFF)" d="M17.905 27.886c0 1.021-0.857 1.857-1.905 1.857s-1.905-0.836-1.905-1.857c0-1.021 0.857-1.857 1.905-1.857s1.905 0.836 1.905 1.857zM22.857 24.171c0 0.395-0.357 0.743-0.762 0.743h-12.191c-0.405 0-0.762-0.348-0.762-0.743v-16.343c0-0.395 0.357-0.743 0.762-0.743h12.191c0.405 0 0.762 0.348 0.762 0.743v16.343zM18.286 4.486c0 0.209-0.167 0.371-0.381 0.371h-3.809c-0.214 0-0.381-0.162-0.381-0.371s0.167-0.371 0.381-0.371h3.809c0.214 0 0.381 0.162 0.381 0.371zM25.143 4.114c0-1.625-1.381-2.971-3.048-2.971h-12.191c-1.667 0-3.048 1.346-3.048 2.971v23.771c0 1.625 1.381 2.971 3.048 2.971h12.191c1.667 0 3.048-1.346 3.048-2.971v-23.771z"></path>
</symbol>
<symbol id="palm-menu" viewBox="0 0 32 32">
<path fill="#707070" style="fill: var(--color1, #707070)" d="M17.905 27.886c0 1.021-0.857 1.857-1.905 1.857s-1.905-0.836-1.905-1.857c0-1.021 0.857-1.857 1.905-1.857s1.905 0.836 1.905 1.857zM22.857 24.171c0 0.395-0.357 0.743-0.762 0.743h-12.191c-0.405 0-0.762-0.348-0.762-0.743v-16.343c0-0.395 0.357-0.743 0.762-0.743h12.191c0.405 0 0.762 0.348 0.762 0.743v16.343zM18.286 4.486c0 0.209-0.167 0.371-0.381 0.371h-3.809c-0.214 0-0.381-0.162-0.381-0.371s0.167-0.371 0.381-0.371h3.809c0.214 0 0.381 0.162 0.381 0.371zM25.143 4.114c0-1.625-1.381-2.971-3.048-2.971h-12.191c-1.667 0-3.048 1.346-3.048 2.971v23.771c0 1.625 1.381 2.971 3.048 2.971h12.191c1.667 0 3.048-1.346 3.048-2.971v-23.771z"></path>
</symbol>
<symbol id="pinterest-side" viewBox="0 0 32 32">
<path fill="#fff" style="fill: var(--color1, #fff)" d="M15.952 0.929c-6.107 0-12.143 4.071-12.143 10.661 0 4.191 2.357 6.571 3.786 6.571 0.589 0 0.929-1.643 0.929-2.107 0-0.554-1.411-1.732-1.411-4.036 0-4.786 3.643-8.179 8.357-8.179 4.054 0 7.053 2.304 7.053 6.536 0 3.161-1.268 9.089-5.375 9.089-1.482 0-2.75-1.071-2.75-2.607 0-2.25 1.571-4.429 1.571-6.75 0-3.94-5.589-3.226-5.589 1.536 0 1 0.125 2.107 0.571 3.018-0.821 3.536-2.5 8.804-2.5 12.447 0 1.125 0.161 2.232 0.268 3.357 0.202 0.226 0.101 0.202 0.411 0.089 3-4.107 2.893-4.911 4.25-10.286 0.732 1.393 2.625 2.143 4.125 2.143 6.321 0 9.161-6.161 9.161-11.714 0-5.911-5.107-9.768-10.714-9.768z"></path>
</symbol>
<symbol id="reddit-side" viewBox="0 0 32 32">
<path fill="#fff" style="fill: var(--color1, #fff)" d="M27.375 13.042c-0.893 0-1.678 0.369-2.256 0.946-2.125-1.47-4.988-2.417-8.161-2.518l1.649-7.429 5.25 1.179c0 1.286 1.048 2.333 2.333 2.333 1.31 0 2.363-1.077 2.363-2.363s-1.048-2.363-2.363-2.363c-0.917 0-1.708 0.554-2.101 1.31l-5.798-1.286c-0.292-0.077-0.577 0.131-0.655 0.423l-1.809 8.19c-3.149 0.131-5.982 1.077-8.113 2.548-0.577-0.601-1.393-0.97-2.286-0.97-3.31 0-4.393 4.441-1.363 5.958-0.107 0.47-0.155 0.97-0.155 1.47 0 4.988 5.619 9.030 12.518 9.030 6.929 0 12.548-4.042 12.548-9.030 0-0.5-0.053-1.024-0.185-1.494 2.97-1.524 1.875-5.934-1.417-5.934zM8.869 19.316c0-1.31 1.048-2.363 2.363-2.363 1.286 0 2.333 1.048 2.333 2.363 0 1.286-1.048 2.333-2.333 2.333-1.31 0.006-2.363-1.048-2.363-2.333zM21.625 24.881c-2.167 2.167-8.28 2.167-10.446 0-0.238-0.208-0.238-0.577 0-0.815 0.208-0.208 0.577-0.208 0.786 0 1.655 1.696 7.143 1.726 8.869 0 0.208-0.208 0.577-0.208 0.786 0 0.244 0.238 0.244 0.607 0.006 0.815zM21.577 21.655c-1.286 0-2.333-1.048-2.333-2.333 0-1.31 1.048-2.363 2.333-2.363 1.31 0 2.363 1.048 2.363 2.363-0.006 1.28-1.054 2.333-2.363 2.333z"></path>
</symbol>
<symbol id="sun" viewBox="0 0 32 32">
<path fill="#183a5d" style="fill: var(--color6, #183a5d)" d="M16 0c8.837 0 16 7.163 16 16s-7.163 16-16 16c-8.837 0-16-7.163-16-16s7.163-16 16-16z"></path>
<path fill="#fff" style="fill: var(--color1, #fff)" d="M16.001 6.72c0.335 0 0.606 0.271 0.606 0.606v1.576c0 0.335-0.271 0.606-0.606 0.606s-0.606-0.271-0.606-0.606v-1.576c0-0.335 0.271-0.606 0.606-0.606zM9.437 9.437c0.237-0.237 0.62-0.237 0.857 0l1.12 1.12c0.237 0.237 0.237 0.62 0 0.857s-0.62 0.237-0.857 0l-1.12-1.12c-0.237-0.237-0.237-0.62 0-0.857zM22.566 9.437c0.237 0.237 0.237 0.62 0 0.857l-1.12 1.12c-0.237 0.237-0.62 0.237-0.857 0s-0.237-0.62 0-0.857l1.12-1.12c0.237-0.237 0.62-0.237 0.857 0zM13.474 12.219c0.748-0.5 1.628-0.767 2.527-0.767 1.207 0 2.364 0.479 3.217 1.332s1.332 2.010 1.332 3.217c0 0.9-0.267 1.779-0.767 2.527s-1.21 1.331-2.042 1.676-1.746 0.434-2.628 0.259c-0.882-0.175-1.693-0.609-2.329-1.245s-1.069-1.447-1.245-2.329-0.085-1.797 0.259-2.628c0.344-0.831 0.927-1.542 1.676-2.042zM6.72 16.001c0-0.335 0.271-0.606 0.606-0.606h1.576c0.335 0 0.606 0.271 0.606 0.606s-0.271 0.606-0.606 0.606h-1.576c-0.335 0-0.606-0.271-0.606-0.606zM22.492 16.001c0-0.335 0.271-0.606 0.606-0.606h1.576c0.335 0 0.606 0.271 0.606 0.606s-0.271 0.606-0.606 0.606h-1.576c-0.335 0-0.606-0.271-0.606-0.606zM11.414 20.588c0.237 0.237 0.237 0.62 0 0.857l-1.12 1.12c-0.237 0.237-0.62 0.237-0.857 0s-0.237-0.62 0-0.857l1.12-1.12c0.237-0.237 0.62-0.237 0.857 0zM20.588 20.588c0.237-0.237 0.62-0.237 0.857 0l1.12 1.12c0.237 0.237 0.237 0.62 0 0.857s-0.62 0.237-0.857 0l-1.12-1.12c-0.237-0.237-0.237-0.62 0-0.857zM16.001 22.492c0.335 0 0.606 0.271 0.606 0.606v1.576c0 0.335-0.271 0.606-0.606 0.606s-0.606-0.271-0.606-0.606v-1.576c0-0.335 0.271-0.606 0.606-0.606z"></path>
</symbol>
<symbol id="telegram-side" viewBox="0 0 32 32">
<path fill="#fff" style="fill: var(--color1, #fff)" d="M3.566 15.065c7.761-3.47 12.949-5.712 15.522-6.812 7.387-3.131 8.923-3.681 9.919-3.681 0.207 0 0.706 0.042 1.038 0.296 0.249 0.212 0.332 0.508 0.373 0.719s0.083 0.677 0.041 1.058c-0.415 4.273-2.117 14.724-3.030 19.506-0.373 2.031-1.121 2.708-1.826 2.793-1.536 0.127-2.739-1.058-4.233-2.031-2.324-1.566-3.652-2.539-5.935-4.062-2.615-1.777-0.913-2.75 0.581-4.316 0.374-0.423 7.221-6.727 7.346-7.32 0-0.085 0.041-0.338-0.125-0.465s-0.373-0.085-0.54-0.042c-0.249 0.042-3.984 2.581-11.247 7.574-1.079 0.762-2.034 1.1-2.905 1.1-0.955 0-2.781-0.55-4.15-1.015-1.66-0.55-2.988-0.846-2.864-1.777 0.125-0.508 0.789-1.015 2.034-1.523z"></path>
</symbol>
<symbol id="twitter-side" viewBox="0 0 32 32">
<path fill="#fff" style="fill: var(--color1, #fff)" d="M28.105 10.145c0.019 0.271 0.019 0.541 0.019 0.812 0 8.257-6.285 17.771-17.771 17.771-3.539 0-6.826-1.025-9.591-2.804 0.503 0.058 0.986 0.077 1.508 0.077 2.92 0 5.608-0.986 7.754-2.669-2.746-0.058-5.047-1.856-5.84-4.332 0.387 0.058 0.774 0.097 1.18 0.097 0.561 0 1.122-0.077 1.644-0.213-2.862-0.58-5.008-3.094-5.008-6.13v-0.077c0.832 0.464 1.798 0.754 2.823 0.793-1.682-1.122-2.785-3.036-2.785-5.202 0-1.16 0.309-2.224 0.851-3.152 3.075 3.79 7.696 6.265 12.879 6.536-0.097-0.464-0.155-0.947-0.155-1.431 0-3.442 2.785-6.246 6.246-6.246 1.798 0 3.423 0.754 4.564 1.972 1.412-0.271 2.765-0.793 3.964-1.508-0.464 1.45-1.45 2.669-2.746 3.442 1.257-0.135 2.475-0.483 3.597-0.967-0.851 1.238-1.914 2.34-3.133 3.229z"></path>
</symbol>
<symbol id="twitter" viewBox="0 0 32 32">
<path fill="#fff" style="fill: var(--color1, #fff)" d="M30.628 6.306c-1.092 0.471-2.278 0.81-3.503 0.942 1.262-0.753 2.222-1.94 2.674-3.352-1.167 0.697-2.486 1.205-3.86 1.469-1.111-1.186-2.693-1.921-4.444-1.921-3.371 0-6.082 2.731-6.082 6.082 0 0.471 0.056 0.942 0.151 1.393-5.047-0.264-9.547-2.674-12.542-6.365-0.527 0.904-0.829 1.94-0.829 3.069 0 2.109 1.073 3.973 2.712 5.066-0.998-0.038-1.94-0.32-2.749-0.772 0 0.019 0 0.056 0 0.075 0 2.956 2.090 5.405 4.877 5.969-0.508 0.132-1.055 0.207-1.601 0.207-0.395 0-0.772-0.038-1.149-0.094 0.772 2.41 3.013 4.162 5.687 4.218-2.090 1.638-4.708 2.599-7.551 2.599-0.508 0-0.979-0.019-1.469-0.075 2.693 1.732 5.894 2.731 9.34 2.731 11.186 0 17.306-9.265 17.306-17.306 0-0.264 0-0.527-0.019-0.791 1.187-0.866 2.222-1.94 3.051-3.145z"></path>
</symbol>
<symbol id="user" viewBox="0 0 32 32">
<path fill="#b3b3b1" style="fill: var(--color4, #b3b3b1)" d="M28.308 24.981c0-5.058-1.25-10.904-6.288-10.904-1.558 1.519-3.673 2.462-6.019 2.462s-4.462-0.942-6.019-2.462c-5.038 0-6.288 5.846-6.288 10.904 0 2.808 1.846 5.096 4.096 5.096h16.423c2.25 0 4.096-2.288 4.096-5.096zM23.385 7.923c0-4.077-3.308-7.385-7.385-7.385s-7.385 3.308-7.385 7.385c0 4.077 3.308 7.385 7.385 7.385s7.385-3.308 7.385-7.385z"></path>
</symbol>
<symbol id="youtube" viewBox="0 0 32 32">
<path fill="#fff" style="fill: var(--color1, #fff)" d="M27.041 5.97c-2.367-0.637-11.861-0.637-11.861-0.637s-9.493 0-11.861 0.637c-1.306 0.35-2.335 1.383-2.684 2.694-0.634 2.377-0.634 7.335-0.634 7.335s0 4.959 0.634 7.335c0.349 1.311 1.378 2.344 2.684 2.694 2.368 0.637 11.861 0.637 11.861 0.637s9.494 0 11.861-0.637c1.306-0.351 2.335-1.383 2.684-2.694 0.634-2.377 0.634-7.335 0.634-7.335s0-4.959-0.634-7.335c-0.349-1.311-1.378-2.344-2.684-2.694zM20.006 16l-7.935 4.502v-9.004l7.935 4.502z"></path>
</symbol>
<symbol id="cross" viewBox="0 0 29 32">
<path fill="#2a86e5" style="fill: var(--color1, #2a86e5)" d="M26.363 26.169c0.347-0.347 0.347-0.922 0-1.269l-20.928-20.928c-0.347-0.347-0.922-0.347-1.269 0l-1.269 1.269c-0.347 0.347-0.347 0.922 0 1.269l20.928 20.928c0.347 0.347 0.922 0.347 1.269 0l1.269-1.269z"></path>
<path fill="#2a86e5" style="fill: var(--color1, #2a86e5)" d="M4.165 27.439c0.347 0.347 0.922 0.347 1.269 0l20.928-20.928c0.347-0.347 0.347-0.922 0-1.269l-1.269-1.269c-0.347-0.347-0.922-0.347-1.269 0l-20.928 20.928c-0.347 0.347-0.347 0.922 0 1.269l1.269 1.269z"></path>
</symbol>
<symbol id="googlenews-footer" viewBox="0 0 39 32">
<path fill="#0dd0ba" style="fill: var(--color1, #0dd0ba)" d="M8.487 1.462c0.003-0.249 0.104-0.486 0.283-0.661s0.42-0.273 0.671-0.273h20.127c0.251-0 0.492 0.098 0.67 0.273s0.279 0.413 0.281 0.661v5.135l6.986 1.859c0.468 0.121 0.739 0.636 0.604 1.138l-4.203 15.518-0.001 4.65c0 0.25-0.101 0.491-0.279 0.668s-0.422 0.277-0.675 0.277h-26.895c-0.253 0-0.496-0.099-0.675-0.277s-0.28-0.417-0.28-0.668v-8.115l-4.173-11.341c-0.179-0.488 0.046-1.021 0.501-1.185l7.059-2.542v-5.116zM22.976 4.589l6.238 1.66v-4.434h-19.422v4.292l11.308-4.072c0.455-0.163 0.974 0.102 1.153 0.59l0.723 1.964zM33.63 8.975c-0.179-0.177-0.422-0.277-0.675-0.277h-8.467l-0.968-2.631 13.239 3.523-2.852 10.529 0.002-10.477c0-0.25-0.101-0.491-0.279-0.668zM2.272 10.186l2.828 7.686v-8.23c0-0.193 0.060-0.379 0.168-0.536l-2.997 1.079zM21.146 3.39l1.954 5.309h-16.696l14.743-5.309zM28.934 16.632c-0.051 0.021-0.107 0.032-0.162 0.032h-8.049v-2.096h8.049c0.112 0 0.22 0.044 0.3 0.123s0.124 0.185 0.124 0.296v1.257c0 0.055-0.011 0.11-0.032 0.161s-0.052 0.097-0.092 0.136c-0.039 0.039-0.086 0.070-0.138 0.091zM29.071 24.504c-0.079 0.078-0.187 0.123-0.299 0.123h-8.049v-2.096h8.049c0.112 0 0.22 0.044 0.3 0.123s0.124 0.185 0.124 0.296v1.258c-0 0.111-0.045 0.217-0.124 0.296zM30.342 20.521c-0.079 0.079-0.187 0.123-0.3 0.123h-9.32v-2.096h9.32c0.112 0 0.22 0.044 0.299 0.123s0.124 0.185 0.124 0.296v1.257c0 0.111-0.045 0.218-0.124 0.296zM18.388 19.712c-0.001-0.319-0.028-0.637-0.080-0.952h-4.786v1.889h2.741c-0.226 1.151-1.248 1.986-2.741 1.986-1.664 0-3.010-1.392-3.010-3.038s1.349-3.038 3.010-3.038c0.725-0.012 1.425 0.259 1.95 0.754l1.451-1.435c-0.921-0.854-2.14-1.323-3.402-1.308-0.673-0.008-1.34 0.116-1.964 0.365s-1.191 0.618-1.67 1.086c-0.479 0.468-0.858 1.025-1.118 1.639s-0.393 1.273-0.393 1.939c0 0.666 0.134 1.325 0.393 1.939s0.639 1.171 1.118 1.639c0.479 0.468 1.046 0.837 1.67 1.086s1.291 0.373 1.964 0.365c2.937 0 4.867-2.042 4.867-4.915z"></path>
</symbol>
<symbol id="facebook-footer" viewBox="0 0 16 32">
<path fill="#0dd0ba" style="fill: var(--color1, #0dd0ba)" d="M15.693 0.962c-0.487-0.072-2.162-0.216-4.108-0.216-4.072 0-6.865 2.487-6.865 7.046v3.928h-4.595v5.334h4.595v13.677h5.514v-13.677h4.577l0.703-5.334h-5.28v-3.406c0-1.532 0.414-2.595 2.631-2.595h2.829v-4.757z"></path>
</symbol>
<symbol id="twitter-footer" viewBox="0 0 38 32">
<path fill="#0dd0ba" style="fill: var(--color1, #0dd0ba)" d="M37.248 4.681c-1.306 0.563-2.725 0.969-4.19 1.126 1.509-0.901 2.658-2.32 3.199-4.009-1.397 0.833-2.973 1.442-4.618 1.757-1.329-1.419-3.221-2.297-5.316-2.297-4.032 0-7.275 3.266-7.275 7.275 0 0.563 0.068 1.126 0.18 1.667-6.037-0.315-11.42-3.198-15.001-7.613-0.631 1.081-0.991 2.32-0.991 3.671 0 2.523 1.284 4.753 3.244 6.059-1.194-0.045-2.32-0.383-3.289-0.924 0 0.023 0 0.068 0 0.090 0 3.536 2.5 6.464 5.834 7.14-0.608 0.158-1.261 0.248-1.915 0.248-0.473 0-0.923-0.045-1.374-0.113 0.923 2.883 3.604 4.978 6.802 5.046-2.5 1.96-5.631 3.108-9.032 3.108-0.608 0-1.171-0.023-1.757-0.090 3.221 2.072 7.050 3.266 11.172 3.266 13.38 0 20.7-11.082 20.7-20.7 0-0.315 0-0.631-0.023-0.946 1.419-1.036 2.658-2.32 3.649-3.762z"></path>
</symbol>
<symbol id="instagram-footer" viewBox="0 0 32 32">
<path fill="#0dd0ba" style="fill: var(--color1, #0dd0ba)" d="M9.975 0.454c-1.6 0.076-2.693 0.331-3.649 0.706-0.989 0.385-1.827 0.902-2.661 1.739s-1.347 1.676-1.73 2.666c-0.37 0.958-0.621 2.051-0.692 3.653s-0.086 2.116-0.079 6.201c0.008 4.085 0.026 4.597 0.103 6.201 0.076 1.6 0.331 2.693 0.706 3.648 0.386 0.989 0.903 1.827 1.74 2.661s1.675 1.347 2.668 1.73c0.957 0.37 2.051 0.622 3.652 0.692s2.116 0.086 6.2 0.078c4.084-0.008 4.598-0.026 6.202-0.102s2.691-0.332 3.647-0.706c0.989-0.387 1.827-0.902 2.661-1.74s1.347-1.677 1.729-2.668c0.371-0.957 0.622-2.051 0.692-3.651 0.070-1.606 0.087-2.118 0.079-6.202s-0.026-4.596-0.102-6.2-0.331-2.693-0.706-3.65c-0.387-0.989-0.903-1.826-1.739-2.661s-1.677-1.348-2.668-1.729c-0.957-0.37-2.051-0.623-3.652-0.692s-2.116-0.087-6.201-0.079c-4.085 0.008-4.596 0.025-6.201 0.103zM10.151 27.646c-1.467-0.064-2.263-0.308-2.794-0.512-0.703-0.271-1.203-0.598-1.732-1.122s-0.854-1.026-1.128-1.727c-0.206-0.531-0.454-1.326-0.523-2.793-0.075-1.585-0.090-2.061-0.099-6.077s0.007-4.491 0.076-6.077c0.063-1.465 0.308-2.263 0.511-2.793 0.271-0.704 0.597-1.203 1.122-1.732s1.026-0.854 1.728-1.128c0.53-0.207 1.325-0.453 2.791-0.523 1.586-0.075 2.062-0.090 6.077-0.099s4.492 0.006 6.079 0.076c1.465 0.064 2.263 0.307 2.793 0.511 0.703 0.271 1.203 0.596 1.732 1.122s0.854 1.025 1.129 1.728c0.207 0.529 0.453 1.324 0.523 2.791 0.075 1.586 0.093 2.062 0.1 6.077s-0.007 4.492-0.076 6.077c-0.064 1.467-0.307 2.263-0.511 2.794-0.271 0.702-0.597 1.203-1.123 1.732s-1.026 0.854-1.728 1.128c-0.53 0.207-1.326 0.453-2.791 0.523-1.586 0.075-2.062 0.090-6.078 0.099s-4.491-0.008-6.077-0.076zM22.413 7.351c0.001 0.357 0.107 0.706 0.306 1.002s0.481 0.527 0.811 0.663 0.693 0.171 1.043 0.101c0.35-0.070 0.671-0.243 0.923-0.496s0.423-0.575 0.492-0.925c0.069-0.35 0.032-0.713-0.105-1.043s-0.369-0.611-0.666-0.809c-0.297-0.198-0.646-0.303-1.003-0.302-0.479 0.001-0.937 0.192-1.275 0.531s-0.527 0.798-0.526 1.277zM8.481 15.405c0.008 4.266 3.473 7.716 7.738 7.708s7.718-3.472 7.71-7.738c-0.008-4.266-3.474-7.717-7.739-7.709s-7.716 3.473-7.708 7.739zM11.191 15.4c-0.002-0.992 0.29-1.962 0.839-2.787s1.331-1.47 2.247-1.851c0.915-0.381 1.923-0.483 2.896-0.291s1.867 0.667 2.57 1.367 1.182 1.592 1.377 2.565c0.195 0.972 0.098 1.981-0.28 2.898s-1.019 1.701-1.842 2.254c-0.824 0.553-1.792 0.849-2.784 0.851-0.658 0.001-1.311-0.127-1.92-0.378s-1.162-0.619-1.629-1.084-0.837-1.017-1.090-1.625c-0.253-0.608-0.384-1.26-0.385-1.918z"></path>
</symbol>
<symbol id="youtube-footer" viewBox="0 0 46 32">
<path fill="#0dd0ba" style="fill: var(--color1, #0dd0ba)" d="M40.394 1.88c-3.398-0.914-17.025-0.914-17.025-0.914s-13.626 0-17.025 0.914c-1.875 0.503-3.351 1.985-3.853 3.867-0.911 3.411-0.911 10.529-0.911 10.529s0 7.117 0.911 10.529c0.501 1.882 1.978 3.364 3.853 3.867 3.398 0.914 17.025 0.914 17.025 0.914s13.627 0 17.025-0.914c1.875-0.503 3.351-1.985 3.852-3.867 0.911-3.412 0.911-10.529 0.911-10.529s0-7.117-0.911-10.529c-0.501-1.882-1.977-3.364-3.852-3.867zM30.296 16.276l-11.389 6.462v-12.924l11.389 6.462z"></path>
</symbol>
<symbol id="lenta-footer" viewBox="0 0 32 32">
<path fill="#0dd0ba" style="fill: var(--color1, #0dd0ba)" d="M1.391 0.348v5.47c13.579 0 24.614 11.035 24.614 24.614h5.47c0-16.614-13.469-30.084-30.084-30.084zM1.391 9.921v5.47c8.3 0 15.042 6.742 15.042 15.042h5.47c0-11.322-9.189-20.512-20.512-20.512zM5.493 22.227c-1.088 0-2.131 0.432-2.901 1.202s-1.202 1.813-1.202 2.901c0 1.088 0.432 2.132 1.202 2.901s1.813 1.202 2.901 1.202c1.088 0 2.131-0.432 2.901-1.202s1.202-1.813 1.202-2.901c0-1.088-0.432-2.131-1.202-2.901s-1.813-1.202-2.901-1.202z"></path>
</symbol>
</defs>
</svg>
