<svg width="20" height="21" viewBox="0 0 20 21" fill="none" xmlns="http://www.w3.org/2000/svg">
<path d="M17.4647 8.55859C16.8788 8.55859 16.3632 8.80078 15.9843 9.17969C14.5897 8.21484 12.7108 7.59375 10.6288 7.52734L11.7108 2.65234L15.1561 3.42578C15.1561 4.26953 15.8436 4.95703 16.6874 4.95703C17.5468 4.95703 18.2382 4.25 18.2382 3.40625C18.2382 2.5625 17.5507 1.85547 16.6874 1.85547C16.0858 1.85547 15.5663 2.21875 15.3085 2.71484L11.5038 1.87109C11.3124 1.82031 11.1249 1.95703 11.0741 2.14844L9.88661 7.52344C7.8202 7.60938 5.96083 8.23047 4.56239 9.19531C4.18348 8.80078 3.64833 8.55859 3.06239 8.55859C0.890515 8.55859 0.179577 11.4727 2.16786 12.4688C2.09755 12.7773 2.0663 13.1055 2.0663 13.4336C2.0663 16.707 5.7538 19.3594 10.2811 19.3594C14.828 19.3594 18.5155 16.707 18.5155 13.4336C18.5155 13.1055 18.4804 12.7617 18.3944 12.4531C20.3436 11.4531 19.6249 8.55859 17.4647 8.55859ZM5.3202 12.6758C5.3202 11.8164 6.0077 11.125 6.87098 11.125C7.71473 11.125 8.40223 11.8125 8.40223 12.6758C8.40223 13.5195 7.71473 14.207 6.87098 14.207C6.01161 14.2109 5.3202 13.5195 5.3202 12.6758ZM13.6913 16.3281C12.2694 17.75 8.2577 17.75 6.83583 16.3281C6.67958 16.1914 6.67958 15.9492 6.83583 15.793C6.97255 15.6563 7.21473 15.6563 7.35145 15.793C8.43739 16.9063 12.039 16.9258 13.1718 15.793C13.3085 15.6563 13.5507 15.6563 13.6874 15.793C13.8475 15.9492 13.8475 16.1914 13.6913 16.3281ZM13.66 14.2109C12.8163 14.2109 12.1288 13.5234 12.1288 12.6797C12.1288 11.8203 12.8163 11.1289 13.66 11.1289C14.5194 11.1289 15.2108 11.8164 15.2108 12.6797C15.2069 13.5195 14.5194 14.2109 13.66 14.2109Z" fill="white"/>
</svg>
